<svg viewBox="0 0 800 600" xmlns="http://www.w3.org/2000/svg">
  <!-- Background -->
  <rect x="28.1" y="5" width="792.5" height="596.3" fill="white"/>
  
  <!-- Title -->
  <text x="400" y="35" text-anchor="middle" font-size="26" font-weight="bold" fill="#333333">
    Right Riemann Approximation: f(x) and g(x)
  </text>
  
  <!-- Axes -->
  <line x1="80" y1="350" x2="720" y2="350" stroke="#333" stroke-width="2"/>
  <line x1="80" y1="520" x2="80" y2="80" stroke="#333" stroke-width="2"/>
  
  <!-- Axis labels -->
  <text x="750" y="355" font-size="18" fill="#333333">x</text>
  <text x="75" y="70" font-size="18" fill="#333333" text-anchor="end">y</text>
  
  <!-- Zero line label -->
  <text x="60" y="355" font-size="16" fill="#333333" text-anchor="end">0</text>
  
  <!-- Interval markers -->
  <text x="100" y="370" text-anchor="middle" font-size="18" fill="#333333">a</text>
  <text x="700" y="370" text-anchor="middle" font-size="18" fill="#333333">b</text>
  <line x1="100" y1="345" x2="100" y2="355" stroke="#333" stroke-width="2"/>
  <line x1="700" y1="345" x2="700" y2="355" stroke="#333" stroke-width="2"/>
  
  <!-- Rectangles for f(x) - all positive -->
  <rect x="100" y="190.6" width="60" height="159.4" fill="#4a90e2" opacity="0.4" stroke="#4a90e2" stroke-width="1.5"/>
  <rect x="160" y="165.6" width="60" height="184.4" fill="#4a90e2" opacity="0.4" stroke="#4a90e2" stroke-width="1.5"/>
  <rect x="220" y="150" width="60" height="200" fill="#4a90e2" opacity="0.4" stroke="#4a90e2" stroke-width="1.5"/>
  <rect x="280" y="146.3" width="60" height="203.8" fill="#4a90e2" opacity="0.4" stroke="#4a90e2" stroke-width="1.5"/>
  <rect x="340" y="157.5" width="60" height="192.5" fill="#4a90e2" opacity="0.4" stroke="#4a90e2" stroke-width="1.5"/>
  <rect x="401.3" y="180" width="58.8" height="170" fill="#4a90e2" opacity="0.4" stroke="#4a90e2" stroke-width="1.5"/>
  <rect x="460" y="205" width="60" height="145" fill="#4a90e2" opacity="0.4" stroke="#4a90e2" stroke-width="1.5"/>
  <rect x="520" y="230" width="60" height="120" fill="#4a90e2" opacity="0.4" stroke="#4a90e2" stroke-width="1.5"/>
  <rect x="580" y="240" width="60" height="110" fill="#4a90e2" opacity="0.4" stroke="#4a90e2" stroke-width="1.5"/>
  <rect x="641.3" y="249.4" width="60" height="100" fill="#4a90e2" opacity="0.4" stroke="#4a90e2" stroke-width="1.5"/>
  
  <!-- Rectangles for g(x) - some positive, some negative -->
  <rect x="101.3" y="349.4" width="58.8" height="13" fill="#888888" opacity="0.4" stroke="#888888" stroke-width="1.5"/>
  <rect transform="matrix(1,0,0,1,-7.5,4.2)" x="169.3" y="340.5" width="55.6" height="5" fill="#888888" opacity="0.4" stroke="#888888" stroke-width="1.5"/>
  <rect transform="matrix(1,0,0,1,-3.7,2.7)" x="222.5" y="325" width="60" height="23" fill="#888888" opacity="0.4" stroke="#888888" stroke-width="1.5"/>
  <rect x="280.6" y="293" width="60" height="54.9" fill="#888888" opacity="0.4" stroke="#888888" stroke-width="1.5"/>
  <rect x="340.6" y="288.1" width="60" height="61.9" fill="#888888" opacity="0.4" stroke="#888888" stroke-width="1.5"/>
  <rect x="402.5" y="308.8" width="57.6" height="39" fill="#888888" opacity="0.4" stroke="#888888" stroke-width="1.5"/>
  <rect x="460" y="338" width="60" height="12" fill="#888888" opacity="0.4" stroke="#888888" stroke-width="1.5"/>
  <rect x="520" y="350" width="60" height="20" fill="#888888" opacity="0.4" stroke="#888888" stroke-width="1.5"/>
  <rect x="580" y="350" width="60" height="40" fill="#888888" opacity="0.4" stroke="#888888" stroke-width="1.5"/>
  <rect x="640" y="350" width="60" height="50" fill="#888888" opacity="0.4" stroke="#888888" stroke-width="1.5"/>
  
  <!-- Function curves -->
  <path d="M 100.6 218.8 Q 160.6 183.8 220.6 163.8 T 340.6 143.8 Q 400.6 153.8 460.6 178.8 T 580.6 233.8 Q 640.6 243.8 700.6 248.8" 
        fill="none" stroke="#4a90e2" stroke-width="3"/>
  <path d="M 101.6 373.3 Q 161.6 358.5 221.5 343.6 T 341.4 289.1 Q 401.3 279.3 461.3 309 T 581.1 368.4 Q 641.1 388.1 701 403" 
        fill="none" stroke="#888888" stroke-width="3"/>
  
  <!-- Partition markers -->
  <line x1="160" y1="345" x2="160" y2="355" stroke="#666" stroke-width="1"/>
  <line x1="220" y1="345" x2="220" y2="355" stroke="#666" stroke-width="1"/>
  <line x1="280" y1="345" x2="280" y2="355" stroke="#666" stroke-width="1"/>
  <line x1="340" y1="345" x2="340" y2="355" stroke="#666" stroke-width="1"/>
  <line x1="400" y1="345" x2="400" y2="355" stroke="#666" stroke-width="1"/>
  <line x1="460" y1="345" x2="460" y2="355" stroke="#666" stroke-width="1"/>
  <line x1="520" y1="345" x2="520" y2="355" stroke="#666" stroke-width="1"/>
  <line x1="580" y1="345" x2="580" y2="355" stroke="#666" stroke-width="1"/>
  <line x1="640" y1="345" x2="640" y2="355" stroke="#666" stroke-width="1"/>
  
  <!-- Right endpoint markers for f(x) with labels -->
  <circle cx="160.6" cy="186.9" r="4" fill="black"/>
  <text x="160.6" y="168.8" text-anchor="middle" font-size="13" fill="#000000">f(x₁)</text>
  
  <circle cx="220.6" cy="164.4" r="4" fill="black"/>
  <text x="219.4" y="148.1" text-anchor="middle" font-size="13" fill="#000000">f(x₂)</text>
  
  <circle cx="280.6" cy="148.1" r="4" fill="black"/>
  <text x="280" y="130" text-anchor="middle" font-size="13" fill="#000000">f(x₃)</text>
  
  <circle cx="340" cy="145" r="4" fill="black"/>
  <text x="340" y="135" text-anchor="middle" font-size="13" fill="#000000">f(x₄)</text>
  
  <circle cx="400" cy="160" r="4" fill="black"/>
  <text x="399.4" y="147.5" text-anchor="middle" font-size="13" fill="#000000">f(x₅)</text>
  
  <circle cx="460.6" cy="180" r="4" fill="black"/>
  <text x="460.6" y="166.3" text-anchor="middle" font-size="13" fill="#000000">f(x₆)</text>
  
  <circle cx="520" cy="206.3" r="4" fill="black"/>
  <text x="520" y="193.1" text-anchor="middle" font-size="13" fill="#000000">f(x₇)</text>
  
  <circle cx="580" cy="231.3" r="4" fill="black"/>
  <text x="580" y="220" text-anchor="middle" font-size="13" fill="#000000">f(x₈)</text>
  
  <circle cx="640" cy="241.3" r="4" fill="black"/>
  <text x="640" y="230" text-anchor="middle" font-size="13" fill="#000000">f(x₉)</text>
  
  <circle cx="699.4" cy="247.5" r="4" fill="black"/>
  <text x="700.6" y="239.4" text-anchor="middle" font-size="13" fill="#000000">f(x₁₀)</text>
  
  <!-- Right endpoint markers for g(x) with labels -->
  <circle cx="160" cy="361.3" r="4" fill="black"/>
  <text x="160.6" y="381.3" text-anchor="middle" font-size="13" fill="#000000">g(x₁)</text>
  
  <ellipse rx="4" ry="3.7" cx="220" cy="345.3" fill="black"/>
  <text x="218.8" y="333.8" text-anchor="middle" font-size="13" fill="#000000">g(x₂)</text>
  
  <circle cx="279.4" cy="325" r="4" fill="black"/>
  <text x="279.4" y="312.5" text-anchor="middle" font-size="13" fill="#000000">g(x₃)</text>
  
  <circle cx="341.9" cy="288.1" r="4" fill="black"/>
  <text x="343.2" y="276.9" text-anchor="middle" font-size="13" fill="#000000">g(x₄)</text>
  
  <circle cx="401.3" cy="286.9" r="4" fill="black"/>
  <text x="400.6" y="275" text-anchor="middle" font-size="13" fill="#000000">g(x₅)</text>
  
  <circle cx="460" cy="310" r="4" fill="black"/>
  <text x="460" y="298.1" text-anchor="middle" font-size="13" fill="#000000">g(x₆)</text>
  
  <circle cx="520" cy="338.1" r="4" fill="black"/>
  <text x="519.4" y="326.9" text-anchor="middle" font-size="13" fill="#000000">g(x₇)</text>
  
  <circle cx="580.6" cy="370" r="4" fill="black"/>
  <text x="579.4" y="390" text-anchor="middle" font-size="13" fill="#000000">g(x₈)</text>
  
  <circle cx="639.4" cy="389.4" r="4" fill="black"/>
  <text x="640.6" y="411.3" text-anchor="middle" font-size="13" fill="#000000">g(x₉)</text>
  
  <circle cx="700" cy="401.3" r="4" fill="black"/>
  <text x="700" y="415" text-anchor="middle" font-size="13" fill="#000000">g(x₁₀)</text>
  
  <!-- Legend -->
  <rect x="100" y="565" width="30" height="15" fill="#4a90e2" opacity="0.4" stroke="#4a90e2" stroke-width="1.5"/>
  <text x="135" y="577" font-size="16" fill="#333333">f(x)</text>
  
  <rect x="220" y="565" width="30" height="15" fill="#888888" opacity="0.4" stroke="#888888" stroke-width="1.5"/>
  <text x="255" y="577" font-size="16" fill="#333333">g(x)</text>
  
  <text x="370" y="577" font-size="15" fill="#555555" font-style="italic">
    (Heights taken at right endpoints)
  </text>
    <rect x="70" y="230" width="0" height="0" fill="rgb(255, 255, 255)"/>
    <rect x="258.1" y="269.4" width="0" height="0" fill="rgb(255, 255, 255)"/>
</svg>